<svg width="22" height="13" viewBox="0 0 22 13" fill="none" xmlns="http://www.w3.org/2000/svg">
<rect x="1.09375" y="0.946167" width="20" height="11" rx="0.5" fill="#FCD34D" stroke="#FBBF24"/>
<path d="M4.12244 3.76617H5.12244L5.47444 7.94217H5.41044L5.93844 4.40617H6.65844L7.18644 7.94217H7.12244L7.47444 3.76617H8.47444L7.87444 9.44617H6.78644L6.14644 5.44617H6.45044L5.81044 9.44617H4.72244L4.12244 3.76617ZM9.28731 8.55817H10.6073V4.65417H9.28731V3.76617L12.9033 3.76617V4.65417H11.5833V8.55817H12.9033V9.44617H9.28731V8.55817ZM14.1162 3.76617H15.9482C16.3375 3.76617 16.6815 3.84083 16.9802 3.99017C17.2842 4.1395 17.5189 4.35283 17.6842 4.63017C17.8549 4.9075 17.9402 5.2275 17.9402 5.59017C17.9402 5.9475 17.8549 6.26483 17.6842 6.54217C17.5189 6.81417 17.2842 7.02483 16.9802 7.17417C16.6815 7.3235 16.3375 7.39817 15.9482 7.39817H15.0922V9.44617H14.1162V3.76617ZM15.8282 6.50217C16.1802 6.50217 16.4495 6.42217 16.6362 6.26217C16.8229 6.10217 16.9162 5.87283 16.9162 5.57417C16.9162 5.28083 16.8229 5.05417 16.6362 4.89417C16.4495 4.73417 16.1802 4.65417 15.8282 4.65417L15.0922 4.65417V6.50217H15.8282Z" fill="black"/>
</svg>
