<svg width="22" height="22" viewBox="0 0 22 22" fill="none" xmlns="http://www.w3.org/2000/svg">
<path d="M4.9498 17.05H6.11855L14.7123 8.45624L13.5436 7.28749L4.9498 15.8812V17.05ZM3.2998 18.7V15.1937L14.7123 3.78124C14.8804 3.61318 15.0625 3.49096 15.2586 3.41457C15.4547 3.33818 15.6609 3.29999 15.8774 3.29999C16.0937 3.29999 16.3012 3.33818 16.4998 3.41457C16.6984 3.49096 16.8817 3.61318 17.0498 3.78124L18.2186 4.94999C18.3866 5.11804 18.5088 5.30138 18.5852 5.49999C18.6616 5.6986 18.6998 5.90133 18.6998 6.1082C18.6998 6.32896 18.6615 6.53934 18.5848 6.73932C18.5081 6.93931 18.386 7.12203 18.2186 7.28749L6.80605 18.7H3.2998ZM14.1176 7.88218L13.5436 7.28749L14.7123 8.45624L14.1176 7.88218Z" fill="currentColor"/>
</svg>
