<svg width="24" height="24" viewBox="0 0 24 24" fill="none" xmlns="http://www.w3.org/2000/svg">
<path d="M7.2001 9.00001V7.20001H20.4001V9.00001H7.2001ZM7.2001 12.9V11.1H20.4001V12.9H7.2001ZM7.2001 16.8V15H20.4001V16.8H7.2001ZM4.5001 9.00001C4.26676 9.00001 4.05843 8.90835 3.8751 8.72501C3.69176 8.54168 3.6001 8.32918 3.6001 8.08751C3.6001 7.84585 3.69176 7.63751 3.8751 7.46251C4.05843 7.28751 4.27093 7.20001 4.5126 7.20001C4.75426 7.20001 4.9626 7.28626 5.1376 7.45876C5.3126 7.63126 5.4001 7.84501 5.4001 8.10001C5.4001 8.33335 5.31385 8.54168 5.14135 8.72501C4.96885 8.90835 4.7551 9.00001 4.5001 9.00001ZM4.5001 12.9C4.26676 12.9 4.05843 12.8083 3.8751 12.625C3.69176 12.4417 3.6001 12.2292 3.6001 11.9875C3.6001 11.7458 3.69176 11.5375 3.8751 11.3625C4.05843 11.1875 4.27093 11.1 4.5126 11.1C4.75426 11.1 4.9626 11.1863 5.1376 11.3588C5.3126 11.5313 5.4001 11.745 5.4001 12C5.4001 12.2333 5.31385 12.4417 5.14135 12.625C4.96885 12.8083 4.7551 12.9 4.5001 12.9ZM4.5001 16.8C4.26676 16.8 4.05843 16.7083 3.8751 16.525C3.69176 16.3417 3.6001 16.1292 3.6001 15.8875C3.6001 15.6458 3.69176 15.4375 3.8751 15.2625C4.05843 15.0875 4.27093 15 4.5126 15C4.75426 15 4.9626 15.0863 5.1376 15.2588C5.3126 15.4313 5.4001 15.645 5.4001 15.9C5.4001 16.1333 5.31385 16.3417 5.14135 16.525C4.96885 16.7083 4.7551 16.8 4.5001 16.8Z" fill="currentColor"/>
</svg>
 
